<?xml version="1.0" standalone="no"?>
<!DOCTYPE svg PUBLIC "-//W3C//DTD SVG 20010904//EN"
 "http://www.w3.org/TR/2001/REC-SVG-20010904/DTD/svg10.dtd">
<svg version="1.0" xmlns="http://www.w3.org/2000/svg"
 width="360.000000pt" height="360.000000pt" viewBox="0 0 360.000000 360.000000"
 preserveAspectRatio="xMidYMid meet">
<metadata>
Created by potrace 1.14, written by Peter Selinger 2001-2017
</metadata>
<g transform="translate(0.000000,360.000000) scale(0.100000,-0.100000)"
fill="#000000" stroke="none">
<path d="M1011 2104 c-141 -38 -224 -145 -225 -289 0 -131 60 -236 168 -293
49 -26 57 -27 237 -30 l187 -4 51 76 c28 42 51 79 51 81 0 3 -93 5 -208 5
-183 0 -211 2 -242 19 -49 26 -72 62 -77 118 -5 59 18 108 66 140 32 22 44 23
195 23 l161 0 50 77 c28 42 52 80 53 84 6 16 -407 9 -467 -7z"/>
<path d="M1540 1805 l0 -315 240 0 239 0 51 75 c27 41 50 77 50 80 0 3 -92 5
-205 5 l-205 0 0 235 0 235 -85 0 -85 0 0 -315z"/>
<path d="M2205 2095 l-25 -24 0 -291 0 -290 86 0 86 0 -4 169 -3 169 158 -152
c87 -83 168 -159 180 -168 36 -29 79 -33 107 -10 l25 20 0 299 0 298 -82 3
-83 3 0 -171 c0 -93 -3 -170 -8 -170 -4 0 -77 70 -162 156 -186 188 -225 210
-275 159z"/>
</g>
</svg>
